<svg width="130" height="49" fill="none" xmlns="http://www.w3.org/2000/svg"><g clip-path="url(#a)"><path d="M42.683 21.026v4.28h6.298V42.4h4.405V25.307h6.297v-4.28h-17Zm36.135 1.242c-1.28-.89-3.194-1.361-5.555-1.361-1.065 0-6.309.114-6.53.12l-.832.016v21.356h4.433v-7.746h2.832c1.684.038 3.35-.335 4.859-1.088a6.959 6.959 0 0 0 3.256-6.039c0-2.39-.827-4.16-2.463-5.26v.002Zm-8.495 3.038c.867 0 2.175-.062 2.713-.062 3.08 0 3.71.95 3.71 2.374a2.677 2.677 0 0 1-1.02 2.134 5.803 5.803 0 0 1-2.923.57h-2.469l-.01-5.015v-.001Zm20.37.45a7.788 7.788 0 0 0-5.76 2.482 8.356 8.356 0 0 0-2.355 5.97 8.528 8.528 0 0 0 2.362 6.011 7.81 7.81 0 0 0 5.752 2.476 7.59 7.59 0 0 0 4.27-1.252v.688h4.377v-16.01l-4.309.904a7.669 7.669 0 0 0-4.338-1.268Zm2.956 5.333a4.44 4.44 0 0 1 1.195 3.12 4.48 4.48 0 0 1-1.195 3.146 3.767 3.767 0 0 1-5.573.002 4.474 4.474 0 0 1-1.188-3.154 4.426 4.426 0 0 1 1.188-3.12 3.712 3.712 0 0 1 5.567 0l.006.006Zm16.705 1.407-1.699-.656c-1.528-.568-1.528-.74-1.528-.972 0-.365 0-1.037 1.947-1.037a8.782 8.782 0 0 1 4.021.986l1.212.568v-4.593l-.567-.21a13.502 13.502 0 0 0-4.751-.882c-3.919 0-6.263 1.866-6.263 4.992 0 3.125 2.264 4.245 4.008 4.882l1.825.656c1.766.631 1.937.808 1.937 1.138 0 .467 0 1.246-2.215 1.246a8.82 8.82 0 0 1-4.688-1.366l-1.281-.74v4.718l.46.24a12.051 12.051 0 0 0 5.481 1.252c4.162 0 6.648-1.959 6.648-5.23.029-3-2.045-4.059-4.547-4.992Zm14.74 0-1.699-.656c-1.529-.568-1.529-.74-1.529-.972 0-.365 0-1.037 1.948-1.037a8.775 8.775 0 0 1 4.02.986l1.213.568v-4.593l-.567-.21a13.496 13.496 0 0 0-4.75-.882c-3.92 0-6.264 1.866-6.264 4.992 0 3.125 2.265 4.245 4.009 4.882l1.824.656c1.766.631 1.937.808 1.937 1.138 0 .467 0 1.246-2.215 1.246a8.825 8.825 0 0 1-4.688-1.366l-1.28-.74v4.718l.458.24a12.058 12.058 0 0 0 5.482 1.252c4.162 0 6.648-1.959 6.648-5.23.029-3-2.016-4.059-4.547-4.992Z" fill="#fff"/><path d="M59.394 42.444a2.31 2.31 0 0 0 2.304-2.316 2.31 2.31 0 0 0-2.304-2.316 2.31 2.31 0 0 0-2.304 2.316 2.31 2.31 0 0 0 2.304 2.316Z" fill="url(#b)"/><path d="M15.26 47.631c4.51 0 8.65-2.74 9.23-6.106l.937-8.356c-1.76.89-2.327 2.86-6.037 1.33 0 0-3.669-2.012-4.691-2.325-5.076-1.552-9.88 2.612-9.926 2.675l1.334 6.579c.586 3.402 4.696 6.203 9.154 6.203Z" fill="url(#c)"/><path d="M27.649 19.267c-.396-5.447-4.19-10.04-9.444-11.431l.289-2.682 2.289-1.174.092-.047 1.625-.822a1.43 1.43 0 0 0 .633-1.924l-.199-.398A1.42 1.42 0 0 0 21.02.153l-.492.251-.035.016-4.636 2.314a.845.845 0 0 0-.488.679l-.429 3.994c-6.698.021-12.155 5.248-12.631 11.86A2.86 2.86 0 0 0 0 22.077v1.344a2.852 2.852 0 0 0 2.72 2.852L4.6 40.886c.377 4.573 3.968 8.024 8.35 8.024h4.303c4.382 0 7.972-3.449 8.345-7.973l1.886-14.685a2.85 2.85 0 0 0 2.472-2.826v-1.345a2.86 2.86 0 0 0-2.307-2.814ZM14.977 9.554c5.503 0 10.024 4.252 10.525 9.658h-2.088c-.489-4.255-4.072-7.563-8.434-7.563-4.36 0-7.951 3.308-8.439 7.563H4.455c.498-5.406 5.017-9.658 10.522-9.658Zm6.401 9.658h-2.31a4.206 4.206 0 0 0-4.09-3.262 4.205 4.205 0 0 0-4.09 3.262h-2.31c.48-3.18 3.2-5.531 6.4-5.531s5.92 2.35 6.4 5.531ZM5.931 34.087 4.93 26.286h7.94l-.511 4.91c-3.02-.097-5.16 1.514-6.425 2.89h-.002Zm17.488 6.615c-.281 3.422-2.933 6.003-6.167 6.003h-4.303c-3.235 0-5.887-2.581-6.175-6.055l-.522-4.077c.478-.797 2.42-3.608 5.915-3.574l-.646 6.178c-.084.808.481 1.537 1.264 1.624l.44.049a1.446 1.446 0 0 0 1.57-1.308l.603-5.769c.114.051.226.098.34.156 4.03 1.981 6.828 1.385 8.484.516l-.802 6.257Zm1.114-8.671c-.542.566-3.054 2.727-8.01.29a12.486 12.486 0 0 0-.93-.409l.59-5.627h9.089l-.739 5.746Zm3.258-8.612a.692.692 0 0 1-.684.691H2.85a.686.686 0 0 1-.684-.687v-1.346c0-.38.306-.687.684-.688h24.257c.38 0 .685.308.686.688l-.002 1.342Z" fill="#fff"/><path d="M17.484 43.017a1.227 1.227 0 0 0-.935 1.459 1.22 1.22 0 1 0 2.387-.517 1.233 1.233 0 0 0-.531-.774 1.216 1.216 0 0 0-.921-.168Zm.878-2.735a.576.576 0 1 0 .448 1.037.578.578 0 0 0 .234-.596.573.573 0 0 0-.683-.44h.002Zm-7.92 3.514a.43.43 0 0 0-.327.512c.05.23.277.378.508.327a.43.43 0 0 0-.182-.839Zm4.734-2.745a.817.817 0 0 0-.266 1.48.813.813 0 0 0 1.23-.858.81.81 0 0 0-.965-.623l.001.001Zm-4.814 0a.813.813 0 0 0 .345 1.59.817.817 0 0 0 .265-1.48.803.803 0 0 0-.61-.11Zm7.556-2.14a1.185 1.185 0 0 0 .387-2.152 1.17 1.17 0 0 0-1.308.024c-.39.273-.58.756-.478 1.224a1.177 1.177 0 0 0 1.4.904Zm-5.335 4.691a.817.817 0 0 0-.257 1.122.81.81 0 0 0 1.116.26.817.817 0 0 0-.246-1.484.81.81 0 0 0-.613.102Zm8.144-4.156a.807.807 0 0 0 1.116.258c.38-.24.494-.74.257-1.121a.807.807 0 0 0-1.477.248.819.819 0 0 0 .104.615Zm-.107 2.32a.816.816 0 0 0-.258 1.121.808.808 0 0 0 1.116.26.816.816 0 0 0-.247-1.485.81.81 0 0 0-.61.103ZM9.906 38.397a1.152 1.152 0 0 0-1.592-.369 1.165 1.165 0 0 0-.368 1.601 1.153 1.153 0 0 0 2.107-.355c.069-.3.015-.616-.147-.877Z" fill="#fff"/></g><defs><linearGradient id="b" x1="57.095" y1="40.128" x2="61.698" y2="40.128" gradientUnits="userSpaceOnUse"><stop stop-color="#59C4C9"/><stop offset=".37" stop-color="#41B1BE"/><stop offset="1" stop-color="#0F8BA8"/></linearGradient><linearGradient id="c" x1="4.773" y1="39.73" x2="25.426" y2="39.73" gradientUnits="userSpaceOnUse"><stop stop-color="#59C4C9"/><stop offset=".37" stop-color="#41B1BE"/><stop offset="1" stop-color="#0F8BA8"/></linearGradient><clipPath id="a"><path fill="#fff" d="M0 0h130v49H0z"/></clipPath></defs></svg>