<svg width="130" height="47" fill="none" xmlns="http://www.w3.org/2000/svg"><path d="M41.88 20.138v4.277h6.339v17.077h4.434V24.415h6.34v-4.277H41.879Zm36.376 1.24c-1.288-.888-3.215-1.36-5.593-1.36-1.071 0-6.35.114-6.572.12l-.838.017v21.337h4.464v-7.739h2.85a10.51 10.51 0 0 0 4.891-1.086 6.942 6.942 0 0 0 3.278-6.035c0-2.388-.832-4.156-2.48-5.254Zm-8.55 3.037c.872 0 2.188-.063 2.73-.063 3.101 0 3.733.95 3.733 2.372.01.831-.37 1.62-1.025 2.132a5.866 5.866 0 0 1-2.943.569h-2.484l-.013-5.01h.001Zm20.504.449a7.877 7.877 0 0 0-5.797 2.48 8.318 8.318 0 0 0-2.372 5.965 8.486 8.486 0 0 0 2.378 6.006 7.89 7.89 0 0 0 5.791 2.473 7.678 7.678 0 0 0 4.3-1.25v.687h4.405V25.228l-4.338.904a7.763 7.763 0 0 0-4.367-1.268Zm2.977 5.328a4.418 4.418 0 0 1 1.203 3.117 4.458 4.458 0 0 1-1.204 3.145 3.808 3.808 0 0 1-5.609 0 4.448 4.448 0 0 1-1.198-3.151 4.405 4.405 0 0 1 1.198-3.116c.71-.8 1.73-1.257 2.802-1.257 1.071 0 2.091.457 2.801 1.257l.006.005Zm16.817 1.405-1.71-.654c-1.54-.569-1.54-.74-1.54-.972 0-.364 0-1.035 1.962-1.035a8.904 8.904 0 0 1 4.047.983l1.22.57v-4.59l-.57-.21a13.712 13.712 0 0 0-4.783-.882c-3.945 0-6.305 1.866-6.305 4.988 0 3.122 2.281 4.242 4.036 4.879l1.836.654c1.779.631 1.95.807 1.95 1.137 0 .467 0 1.246-2.23 1.246a8.922 8.922 0 0 1-4.72-1.365l-1.288-.74v4.715l.462.24a12.2 12.2 0 0 0 5.518 1.25c4.19 0 6.692-1.956 6.692-5.226.029-2.997-2.058-4.056-4.577-4.987Zm14.84 0-1.71-.654c-1.54-.569-1.54-.74-1.54-.972 0-.364 0-1.035 1.961-1.035a8.904 8.904 0 0 1 4.047.983l1.22.57v-4.59l-.57-.21a13.712 13.712 0 0 0-4.783-.882c-3.945 0-6.305 1.866-6.305 4.988 0 3.122 2.281 4.242 4.036 4.879l1.836.654c1.779.631 1.95.807 1.95 1.137 0 .467 0 1.246-2.229 1.246a8.916 8.916 0 0 1-4.72-1.365l-1.289-.74v4.715l.462.24a12.2 12.2 0 0 0 5.518 1.25c4.19 0 6.693-1.956 6.693-5.226.028-2.997-2.03-4.056-4.578-4.987h.001Z" fill="#122F53"/><path d="M58.702 41.538a2.317 2.317 0 0 0 2.32-2.315 2.317 2.317 0 0 0-2.32-2.314 2.317 2.317 0 0 0-2.32 2.314 2.317 2.317 0 0 0 2.32 2.315Z" fill="url(#a)"/><path d="M14.632 45.325c4.323 0 8.292-2.607 8.848-5.811l.899-7.952c-1.688.847-2.232 2.722-5.789 1.266 0 0-3.517-1.914-4.498-2.21-4.866-1.48-9.471 2.482-9.515 2.543l1.278 6.26c.562 3.239 4.502 5.904 8.777 5.904Z" fill="url(#b)"/><path d="M26.509 18.334a12.17 12.17 0 0 0-9.054-10.877l.276-2.553 2.196-1.117.087-.044 1.559-.783a1.362 1.362 0 0 0 .607-1.831L21.988.75a1.366 1.366 0 0 0-1.836-.605l-.47.238-.035.016-4.446 2.202a.805.805 0 0 0-.466.645l-.412 3.801C7.9 7.068 2.67 12.042 2.213 18.333A2.725 2.725 0 0 0 0 21.007v1.28a2.723 2.723 0 0 0 2.609 2.715l1.8 13.904c.362 4.352 3.805 7.636 8.006 7.636h4.126c4.201 0 7.643-3.282 8.001-7.587L26.35 24.98a2.72 2.72 0 0 0 2.37-2.689v-1.28a2.726 2.726 0 0 0-2.211-2.677ZM14.36 9.09c5.277 0 9.61 4.047 10.09 9.191h-2.001c-.47-4.049-3.904-7.197-8.086-7.197a8.145 8.145 0 0 0-8.092 7.198h-2c.478-5.144 4.81-9.19 10.09-9.19V9.09Zm6.137 9.191h-2.215a4.025 4.025 0 0 0-3.922-3.103 4.025 4.025 0 0 0-3.922 3.103H8.224a6.2 6.2 0 0 1 6.136-5.262 6.203 6.203 0 0 1 6.137 5.262ZM5.687 32.436l-.963-7.422h7.615l-.492 4.674c-2.894-.095-4.947 1.44-6.16 2.748Zm16.767 6.295c-.27 3.257-2.814 5.712-5.913 5.712h-4.126c-3.1 0-5.643-2.455-5.918-5.762l-.502-3.88c.459-.758 2.32-3.433 5.672-3.4l-.62 5.879c-.08.768.461 1.462 1.212 1.545l.422.047a1.383 1.383 0 0 0 1.506-1.245l.577-5.49c.11.05.216.094.327.149 3.863 1.886 6.546 1.318 8.134.491l-.77 5.954Zm1.068-8.252c-.52.54-2.928 2.596-7.68.276a12.8 12.8 0 0 0-.89-.389l.563-5.354h8.714l-.707 5.468Zm3.123-8.194a.654.654 0 0 1-.655.658H2.733a.657.657 0 0 1-.657-.655v-1.28c0-.361.295-.654.657-.654H25.99c.363 0 .656.293.657.654l-.002 1.277Z" fill="#122F53"/><path d="M16.763 40.934a1.167 1.167 0 0 0-.896 1.387 1.17 1.17 0 0 0 2.288-.491 1.169 1.169 0 0 0-1.392-.896Zm.842-2.603a.549.549 0 1 0 .232 1.07.549.549 0 0 0-.232-1.069Zm-7.594 3.344a.41.41 0 1 0 .173.8.41.41 0 0 0-.173-.8Zm4.54-2.613a.775.775 0 1 0 .607 1.394.776.776 0 0 0-.608-1.394Zm-4.616 0a.775.775 0 1 0 .33 1.514.774.774 0 1 0-.33-1.514Zm7.244-2.035a1.13 1.13 0 0 0 .873-.9 1.128 1.128 0 1 0-2.215.039 1.13 1.13 0 0 0 1.343.861Zm-5.114 4.464a.774.774 0 1 0 .822 1.314.774.774 0 1 0-.822-1.313v-.001Zm7.807-3.955a.777.777 0 0 0 1.317-.823.778.778 0 0 0-1.416.238.77.77 0 0 0 .1.585Zm-.102 2.207a.773.773 0 0 0-.247 1.067.777.777 0 0 0 1.317-.82.778.778 0 0 0-1.07-.247ZM9.498 36.538a1.11 1.11 0 0 0-1.527-.35 1.104 1.104 0 0 0-.352 1.523 1.11 1.11 0 0 0 2.02-.338 1.104 1.104 0 0 0-.141-.836v.001Z" fill="#122F53"/><defs><linearGradient id="a" x1="56.388" y1="39.223" x2="61.022" y2="39.223" gradientUnits="userSpaceOnUse"><stop stop-color="#59C4C9"/><stop offset=".37" stop-color="#41B1BE"/><stop offset="1" stop-color="#0F8BA8"/></linearGradient><linearGradient id="b" x1="4.577" y1="37.806" x2="24.378" y2="37.806" gradientUnits="userSpaceOnUse"><stop stop-color="#59C4C9"/><stop offset=".37" stop-color="#41B1BE"/><stop offset="1" stop-color="#0F8BA8"/></linearGradient></defs></svg>